<!DOCTYPE svg PUBLIC "-//W3C//DTD SVG 1.1//EN" "http://www.w3.org/Graphics/SVG/1.1/DTD/svg11.dtd">
<!-- Uploaded to: SVG Repo, www.svgrepo.com, Transformed by: SVG Repo Mixer Tools -->
<svg fill="#1d4ed8" height="800px" width="800px" version="1.1" id="Capa_1" xmlns="http://www.w3.org/2000/svg" xmlns:xlink="http://www.w3.org/1999/xlink" viewBox="0 0 297 297" xml:space="preserve" stroke="#1d4ed8">
<g id="SVGRepo_bgCarrier" stroke-width="0"/>
<g id="SVGRepo_tracerCarrier" stroke-linecap="round" stroke-linejoin="round"/>
<g id="SVGRepo_iconCarrier"> <g> <circle cx="261.23" cy="177.062" r="35.77"/> <circle cx="123.515" cy="32.193" r="30.404"/> <path d="M261.229,228.006c-3.72,0-7.343-0.411-10.838-1.171v46.696H27.098c-2.938,0-5.419-2.482-5.419-5.419v-21.137 c0-2.938,2.481-5.42,5.419-5.42h128.448c14.942,0,27.099-12.156,27.099-27.099V193.32c0-14.942-12.156-27.099-27.099-27.099H80.753 c-2.938,0-5.42-2.482-5.42-5.419v-21.138c0-2.936,2.482-5.419,5.42-5.419h42.763c5.986,0,10.839-4.854,10.839-10.84V76.461 c-3.476,0.851-7.104,1.313-10.84,1.313c-3.734,0-7.362-0.462-10.839-1.313v36.106H80.753c-14.942,0-27.099,12.155-27.099,27.098 v21.138c0,14.941,12.156,27.098,27.099,27.098h74.793c2.938,0,5.419,2.482,5.419,5.42v21.137c0,2.938-2.481,5.42-5.419,5.42H27.098 C12.155,219.877,0,232.033,0,246.976v21.137c0,14.942,12.155,27.099,27.098,27.099H261.23c5.986,0,10.84-4.854,10.84-10.84v-57.537 C268.574,227.595,264.95,228.006,261.229,228.006z"/> </g> </g>
</svg>